<?xml version="1.0" standalone="no"?>
<!DOCTYPE svg PUBLIC "-//W3C//DTD SVG 20010904//EN"
 "http://www.w3.org/TR/2001/REC-SVG-20010904/DTD/svg10.dtd">
<svg version="1.0" xmlns="http://www.w3.org/2000/svg"
 width="437.000000pt" height="407.000000pt" viewBox="0 0 437.000000 407.000000"
 preserveAspectRatio="xMidYMid meet">

<g transform="translate(0.000000,407.000000) scale(0.100000,-0.100000)"
fill="#000000" stroke="none">
<path d="M1945 4051 c-111 -27 -184 -125 -185 -247 0 -108 67 -203 170 -239
49 -17 160 -20 160 -4 0 5 4 8 9 5 14 -9 42 5 34 17 -3 5 -1 7 5 4 19 -12 43
3 33 21 -5 9 -5 26 0 40 8 22 8 23 -6 12 -24 -20 -27 -7 -8 31 20 40 20 208 0
222 -8 5 -5 7 8 6 27 -3 56 11 49 23 -4 6 2 8 17 3 16 -4 20 -3 11 3 -8 5 -13
13 -12 18 0 5 -9 11 -21 12 -12 2 -24 12 -26 23 -3 10 -11 19 -18 19 -7 0 -15
5 -17 11 -8 23 -138 35 -203 20z m198 -33 c12 -6 30 -22 40 -35 10 -13 23 -20
29 -17 5 4 2 -5 -7 -20 -19 -29 -27 -27 -32 6 -2 12 -18 34 -35 50 -33 29 -31
36 5 16z"/>
<path d="M2221 3654 c0 -11 3 -14 6 -6 3 7 2 16 -1 19 -3 4 -6 -2 -5 -13z"/>
<path d="M2181 3636 c-15 -18 5 -34 22 -17 9 9 7 10 -8 5 -18 -7 -18 -6 -6 9
7 9 11 17 8 17 -2 0 -10 -6 -16 -14z"/>
<path d="M1133 3355 c-172 -37 -305 -175 -335 -345 -7 -42 -7 -84 1 -141 26
-194 1 -258 -136 -343 -50 -30 -74 -34 -168 -23 -89 11 -195 -10 -269 -52 -70
-41 -151 -128 -184 -198 -24 -52 -26 -70 -27 -168 0 -103 2 -114 32 -177 43
-91 113 -159 211 -206 l77 -37 145 -1 c126 0 152 -3 198 -22 144 -60 239 -123
285 -189 26 -38 27 -44 18 -99 -36 -229 149 -480 396 -535 42 -10 75 -9 153 0
l100 13 46 -27 c69 -40 155 -134 193 -208 31 -60 33 -72 29 -130 -12 -142 33
-258 133 -351 33 -31 72 -59 87 -62 15 -4 32 -11 39 -16 7 -6 13 -4 16 4 4 10
7 11 18 1 11 -11 11 -13 -1 -13 -7 0 -11 -2 -8 -5 3 -3 13 -3 22 1 13 5 14 9
5 20 -6 8 -18 14 -26 14 -12 0 -13 51 -11 335 2 263 0 335 -9 335 -7 0 -13 5
-13 10 0 6 4 10 9 10 5 0 11 9 14 20 4 17 0 20 -33 20 -83 0 -194 78 -270 189
-46 69 -57 106 -69 243 -7 77 -16 123 -34 160 -43 94 -163 193 -293 240 -47
17 -83 22 -184 23 -110 1 -132 4 -175 25 -149 72 -256 290 -241 491 9 135 65
244 154 300 58 37 102 49 217 60 103 9 130 16 200 52 50 25 129 98 166 153 11
16 29 60 41 98 72 235 -87 489 -336 535 -74 14 -105 13 -183 -4z m1032 -3295
c3 -5 1 -10 -4 -10 -6 0 -11 5 -11 10 0 6 2 10 4 10 3 0 8 -4 11 -10z"/>
<path d="M2070 2366 c-200 -54 -266 -295 -118 -433 53 -50 162 -80 238 -66 29
5 32 7 15 14 -29 11 -47 11 -40 -1 3 -6 -1 -7 -10 -3 -13 5 -14 7 -3 14 7 5
22 9 33 10 16 0 14 3 -7 11 -29 10 -36 24 -18 30 7 2 11 70 11 193 l0 190 -28
12 c-16 7 -21 12 -11 13 9 0 18 6 21 13 4 10 7 10 18 0 11 -11 10 -13 -6 -13
-15 -1 -11 -6 15 -20 19 -11 40 -19 45 -19 6 0 -3 7 -19 16 -27 14 -28 17 -13
28 15 11 14 13 -14 19 -41 8 -55 7 -109 -8z m85 -54 c-3 -3 -11 0 -18 7 -9 10
-8 11 6 5 10 -3 15 -9 12 -12z"/>
<path d="M2230 30 c-6 -11 -7 -20 -2 -20 6 0 12 9 15 20 3 11 3 20 1 20 -2 0
-8 -9 -14 -20z"/>
</g>
</svg>
